<svg xmlns="http://www.w3.org/2000/svg" xmlns:xlink="http://www.w3.org/1999/xlink" viewBox="0 0 283.46 283.46">
<defs>
<style>.cls-1{fill:url(#linear-gradient);}.cls-2{fill:#a2a824;}.cls-3{fill:#fafafa;}.cls-4{fill:none;stroke:#000;stroke-miterlimit:10;stroke-width:6px;}
#shadow {filter: drop-shadow(rgb(0, 0, 0) 5px 5px 5px);}
</style>
<linearGradient id="linear-gradient" x1="-0.3" y1="-0.63" x2="282.37" y2="282.7" gradientUnits="userSpaceOnUse"><stop offset="0" stop-color="#454545"/><stop offset="1" stop-color="#c9c9c9"/></linearGradient>
</defs>

<title>webpm</title>

<g id="Layer_2" data-name="Layer 2">
<g id="background_03" data-name="background 03">
<rect class="cls-1" width="283.46" height="283.46"/>
</g>

<g id="webpm">
<g id="shadow">
<path class="cls-2" d="M267.58,142.34a126,126,0,1,1-126-126h0A126.06,126.06,0,0,1,267.58,142.34Z"/>
</g>

<path class="cls-3" d="M232.07,191.49a153.2,153.2,0,0,0,0-97.48c-13.83-8.57-31.24-15.16-50.86-19a210.67,210.67,0,0,0-78.62,0C83,78.85,65.55,85.44,51.73,94a153.2,153.2,0,0,0,0,97.48c13.82,8.57,31.23,15.16,50.86,19a206.45,206.45,0,0,0,39.31,3.7,206.61,206.61,0,0,0,39.31-3.7C200.83,206.65,218.24,200.06,232.07,191.49Z"/>
<path class="cls-4" d="M264.92,142.15A123.38,123.38,0,0,1,141.54,265.53"/>
<path class="cls-4" d="M141.54,265.53A123.37,123.37,0,0,1,18.17,142.15"/>
<path class="cls-4" d="M141.54,18.78A123.37,123.37,0,0,1,264.92,142.15"/>
<path class="cls-4" d="M141.54,18.78A123.36,123.36,0,0,0,18.17,142.15"/>
<path class="cls-4" d="M141.54,18.78c-9.12,0-17.63,6.81-24.84,18.6"/>
<path class="cls-4" d="M116.7,246.92c-5.78-9.46-10.72-22.12-14.47-37"/>
<path class="cls-4" d="M116.7,246.92c7.21,11.79,15.72,18.61,24.84,18.61"/>
<path class="cls-4" d="M166.38,37.38c5.79,9.46,10.73,22.13,14.48,37.05"/>
<path class="cls-4" d="M116.7,37.38c-5.78,9.46-10.72,22.13-14.47,37.05"/>
<path class="cls-4" d="M141.54,265.53c9.12,0,17.64-6.82,24.84-18.61"/>
<path class="cls-4" d="M166.38,246.92c5.79-9.46,10.73-22.12,14.48-37"/>
<path class="cls-4" d="M166.38,37.38c-7.2-11.79-15.72-18.6-24.84-18.6"/>
<path class="cls-4" d="M74,231.65A128.1,128.1,0,0,1,51.37,190.9"/>
<path class="cls-4" d="M43.41,142.15a150.63,150.63,0,0,0,8,48.75"/>
<path class="cls-4" d="M231.71,93.41a127.86,127.86,0,0,0-22.62-40.75"/>
<path class="cls-4" d="M141.54,265.53c-26.17,0-49.95-12.89-67.54-33.88"/>
<path class="cls-4" d="M74,52.66A127.88,127.88,0,0,0,51.37,93.41"/>
<path class="cls-4" d="M209.09,52.66c-17.59-21-41.37-33.88-67.55-33.88"/>
<path class="cls-4" d="M239.68,142.15a150.63,150.63,0,0,1-8,48.75"/>
<path class="cls-4" d="M231.71,93.41a150.57,150.57,0,0,1,8,48.74"/>
<path class="cls-4" d="M141.54,265.53c26.18,0,50-12.89,67.55-33.88"/>
<path class="cls-4" d="M74,52.66c17.59-21,41.37-33.88,67.54-33.88"/>
<path class="cls-4" d="M51.37,93.41a150.57,150.57,0,0,0-8,48.74"/>
<path class="cls-4" d="M209.09,231.65a128.08,128.08,0,0,0,22.62-40.75"/>
<path class="cls-4" d="M180.86,74.43a210.72,210.72,0,0,0-78.63,0"/>
<path class="cls-4" d="M231.71,190.9c-13.82,8.56-31.23,15.16-50.85,19"/>
<path class="cls-4" d="M18.17,142.15c0,18.85,12.61,36,33.2,48.75"/>
<path class="cls-4" d="M51.37,93.41c13.83-8.56,31.24-15.16,50.86-19"/>
<path class="cls-4" d="M51.37,93.41c-20.59,12.76-33.2,29.9-33.2,48.74"/>
<path class="cls-4" d="M231.71,93.41c-13.82-8.56-31.23-15.16-50.85-19"/>
<path class="cls-4" d="M264.92,142.15c0,18.85-12.61,36-33.21,48.75"/>
<path class="cls-4" d="M51.37,190.9c13.83,8.56,31.24,15.16,50.86,19"/>
<path class="cls-4" d="M102.23,209.87a210.17,210.17,0,0,0,78.63,0"/>
<path class="cls-4" d="M231.71,93.41c20.6,12.76,33.21,29.9,33.21,48.74"/>
<line class="cls-4" x1="239.68" y1="142.15" x2="264.5" y2="142.15"/>
<line class="cls-4" x1="18.17" y1="142.15" x2="43.41" y2="142.15"/>
<path class="cls-4" d="M209.09,52.66a133.78,133.78,0,0,0-42.71-15.28"/>
<path class="cls-4" d="M74,52.66c-33.62,19.1-55.83,52.05-55.83,89.49"/>
<path class="cls-4" d="M116.7,246.92a143.26,143.26,0,0,0,49.68,0"/>
<path class="cls-4" d="M18.17,142.15c0,37.45,22.21,70.39,55.83,89.5"/>
<path class="cls-4" d="M209.09,231.65a133.53,133.53,0,0,1-42.71,15.27"/>
<path class="cls-4" d="M166.38,37.38a143.26,143.26,0,0,0-49.68,0"/>
<path class="cls-4" d="M74,52.66a133.81,133.81,0,0,1,42.7-15.28"/>
<path class="cls-4" d="M264.92,142.15c0,37.45-22.21,70.39-55.83,89.5"/>
<path class="cls-4" d="M209.09,52.66c33.62,19.1,55.83,52.05,55.83,89.49"/>
<path class="cls-4" d="M116.7,246.92A133.56,133.56,0,0,1,74,231.65"/>
<path d="M157.68,118.19c9,1.22,13.51,1.89,22.52,3.26-2.51,5.37-7,9.59-13.32,12.55s-14.33,4.45-23.79,4.53c-11.53.09-24.64-2.06-33.33-10-5.49-5-7.84-11.57-7-19.19,1-9.1,5.73-16.29,12.94-21.88a41.72,41.72,0,0,1,25.18-8.8c8.7-.23,20.26,3.77,27,9.19s12.62,16.35,12.8,25.28c-18.58-1-37.06-1.37-55.67-1a12.5,12.5,0,0,0,5.18,10.65c3.47,2.55,7.86,3.84,13.12,3.85a18.46,18.46,0,0,0,9-2A12,12,0,0,0,157.68,118.19Zm.66-15.36a13.16,13.16,0,0,0-5.27-9.91,19.22,19.22,0,0,0-22.33.15,12.39,12.39,0,0,0-4.93,9.72C136.7,102.53,147.45,102.54,158.34,102.83Z"/>
<path d="M70.68,146.6l17,.07c0,2.31,0,3.46,0,5.77a25.18,25.18,0,0,1,8.89-4.76,39.73,39.73,0,0,1,12.55-1.9c8,0,14.77,1.93,20.36,5.82a18.7,18.7,0,0,1,8.4,16.23c0,7.12-2.84,12.72-8.3,16.51s-11.92,5.35-19.46,4.58a34.06,34.06,0,0,1-9.78-2.46,48.37,48.37,0,0,1-9.52-5.64c.92,7.67,1.51,11.44,2.94,18.77a124.29,124.29,0,0,1-14.87-4.81A165.41,165.41,0,0,1,70.68,146.6Zm18.6,19a13.31,13.31,0,0,0,5.15,10.12A20.26,20.26,0,0,0,105.36,180c4.06.36,7.41-.41,10.09-2.31s4-5.26,3.93-10c-.06-4.42-1.52-7.74-4.43-9.92a17.92,17.92,0,0,0-10.76-3.38,18.9,18.9,0,0,0-11,2.73C90.36,159,89,161.82,89.28,165.63Z"/>
<path d="M61.62,138.53c-2.08-13.32-3.85-26.32-1.82-39.79,2.32-1.4,3.53-2.07,6-3.36-1.19,9.76-1.18,15.18-.13,27,2.66-10.69,5.66-20.81,9.23-31.24C77.61,90,79,89.46,81.81,88.45c-.86,10.56-.41,21,.1,31.57A250.09,250.09,0,0,1,92,85.21c3.05-.86,4.61-1.26,7.77-2A325.75,325.75,0,0,0,85,138.53H78c-1.36-10.68-2.65-21.26-2.76-32-2.69,10.73-4.83,21.12-6.59,32Z"/>
<path d="M145.17,147.1h11.16c0,3.19,0,4.78,0,8,4-6.21,8.7-9.29,14.21-9.29a13.18,13.18,0,0,1,7.65,2.24,15.72,15.72,0,0,1,5.28,6.66A22.72,22.72,0,0,1,190,148a13.65,13.65,0,0,1,7.43-2.17,15,15,0,0,1,8.49,2.31,12.12,12.12,0,0,1,4.87,6.55c.68,2.09.8,5.5.19,10.17a146.82,146.82,0,0,1-6.84,30c-3.79,1.45-5.75,2.12-9.74,3.34a200.3,200.3,0,0,0,4.75-28.67c.51-5.14.3-8.49-.44-9.95a4.91,4.91,0,0,0-4.94-2.78,7.74,7.74,0,0,0-4.77,2,11.76,11.76,0,0,0-3.37,5.61,57.06,57.06,0,0,0-1.57,11.42c-.73,10.49-1.27,15.67-2.72,25.73-4.2.9-6.34,1.3-10.69,2,.94-10.16,1.57-20.42,1.88-30.62.19-5.52,0-9.09-.38-10.7a6.77,6.77,0,0,0-1.95-3.56,5.29,5.29,0,0,0-3.67-1.12,7.69,7.69,0,0,0-5,2,11,11,0,0,0-3.23,5.58c-.66,2.42-1,6.43-1.09,12q-.18,14-.69,28c-4.48.34-6.75.45-11.31.53Z"/>
<path d="M189.34,137.58a344.24,344.24,0,0,0-6-54.35c4.89,1.12,7.28,1.76,11.91,3.2,1.48,6.82,2.1,10.37,3.06,17.65,3.07-2.64,6.92-3.08,11.49-1.64a30.24,30.24,0,0,1,12.68,8.17A21.81,21.81,0,0,1,228.89,123c.66,4.9-.69,8.47-3.95,11.17a18.88,18.88,0,0,1-12.28,4.33,16.08,16.08,0,0,1-7-1.62,16.58,16.58,0,0,1-6.06-5c.05,2.29.06,3.44.05,5.75Zm10.26-20c.29,3.92,1.13,6.94,2.57,8.94A10,10,0,0,0,210,131a7.86,7.86,0,0,0,6.12-2.13c1.63-1.53,2.34-4,2-7.51a14.27,14.27,0,0,0-3.38-8.65,13.48,13.48,0,0,0-6.85-4.18c-2.64-.65-4.76-.29-6.36,1.15S199.32,113.73,199.6,117.54Z"/>
</g>
</g>
</svg>