<svg xmlns="http://www.w3.org/2000/svg" xmlns:xlink="http://www.w3.org/1999/xlink" viewBox="0 0 171.7 233.48"><defs>
<style>.cls-1{fill:#fafafa;}.cls-2{fill:#c8c8c8;}.cls-3{fill:url(#linear-gradient);}.cls-4{fill:#a2a824;}.cls-5{fill:none;stroke:#000;stroke-miterlimit:10;stroke-width:2.7px;}
#shadow {filter: drop-shadow(rgb(0, 0, 0) 3px 3px 3px);}
</style>

<linearGradient id="linear-gradient" x1="30.26" y1="92.46" x2="140.9" y2="203.37" gradientUnits="userSpaceOnUse">
<stop offset="0" stop-color="#454545"/>
<stop offset="1" stop-color="#c9c9c9"/>
</linearGradient>
</defs>

<title>ITEM_WEBPM</title>

<g id="icon_item" data-name="icon item">
<path class="cls-1" d="M65.7,258.29a9.93,9.93,0,0,1-9.92-9.92V34.73a9.93,9.93,0,0,1,9.92-9.92H168.1V71.43a12.78,12.78,0,0,0,12.76,12.76h46.62V248.37a9.93,9.93,0,0,1-9.92,9.92Z" transform="translate(-55.78 -24.81)"/>
<path class="cls-2" d="M180.86,77.1h41.52a2.84,2.84,0,0,0,2-4.84L180,27.9a2.84,2.84,0,0,0-4.84,2V71.43A5.68,5.68,0,0,0,180.86,77.1Z" transform="translate(-55.78 -24.81)"/>
<path d="M80.89,58.11a3.41,3.41,0,1,1,0-6.81H143a3.41,3.41,0,0,1,0,6.81Z" transform="translate(-55.78 -24.81)"/>
<path d="M80.89,93.37a3.41,3.41,0,1,1,0-6.81H143a3.41,3.41,0,0,1,0,6.81Z" transform="translate(-55.78 -24.81)"/>
</g>

<g id="WebPM">
<rect id="shadow" class="cls-3" x="22.07" y="84.41" width="127.56" height="127.56" rx="28.35" ry="28.35"/>
<g id="shadow">
<path class="cls-4" d="M198.26,173.27a56.72,56.72,0,1,1-56.72-56.71h0A56.71,56.71,0,0,1,198.26,173.27Z" transform="translate(-55.78 -24.81)"/>
</g>

<path class="cls-1" d="M182.28,195.39a69,69,0,0,0,0-43.87A68.78,68.78,0,0,0,159.39,143,95.09,95.09,0,0,0,124,143a68.72,68.72,0,0,0-22.88,8.54,68.81,68.81,0,0,0,0,43.87A68.72,68.72,0,0,0,124,203.93a94.53,94.53,0,0,0,35.38,0A68.78,68.78,0,0,0,182.28,195.39Z" transform="translate(-55.78 -24.81)"/>
<path class="cls-5" d="M197.06,173.19a55.52,55.52,0,0,1-55.52,55.52" transform="translate(-55.78 -24.81)"/>
<path class="cls-5" d="M141.54,228.71A55.52,55.52,0,0,1,86,173.19" transform="translate(-55.78 -24.81)"/>
<path class="cls-5" d="M141.54,117.67a55.51,55.51,0,0,1,55.52,55.52" transform="translate(-55.78 -24.81)"/>
<path class="cls-5" d="M141.54,117.67A55.52,55.52,0,0,0,86,173.19" transform="translate(-55.78 -24.81)"/>
<path class="cls-5" d="M141.54,117.67c-4.1,0-7.93,3.07-11.17,8.37" transform="translate(-55.78 -24.81)"/>
<path class="cls-5" d="M130.37,220.33a60.72,60.72,0,0,1-6.52-16.67" transform="translate(-55.78 -24.81)"/>
<path class="cls-5" d="M130.37,220.33c3.24,5.31,7.07,8.38,11.17,8.38" transform="translate(-55.78 -24.81)"/>
<path class="cls-5" d="M152.72,126a61,61,0,0,1,6.51,16.67" transform="translate(-55.78 -24.81)"/>
<path class="cls-5" d="M130.37,126a61,61,0,0,0-6.52,16.67" transform="translate(-55.78 -24.81)"/>
<path class="cls-5" d="M141.54,228.71c4.11,0,7.94-3.07,11.18-8.38" transform="translate(-55.78 -24.81)"/>
<path class="cls-5" d="M152.72,220.33a60.73,60.73,0,0,0,6.51-16.67" transform="translate(-55.78 -24.81)"/>
<path class="cls-5" d="M152.72,126c-3.24-5.3-7.07-8.37-11.18-8.37" transform="translate(-55.78 -24.81)"/>
<path class="cls-5" d="M111.15,213.46A57.5,57.5,0,0,1,101,195.12" transform="translate(-55.78 -24.81)"/>
<path class="cls-5" d="M97.38,173.19A67.59,67.59,0,0,0,101,195.12" transform="translate(-55.78 -24.81)"/>
<path class="cls-5" d="M182.12,151.25a57.64,57.64,0,0,0-10.18-18.33" transform="translate(-55.78 -24.81)"/>
<path class="cls-5" d="M141.54,228.71c-11.77,0-22.48-5.8-30.39-15.25" transform="translate(-55.78 -24.81)"/>
<path class="cls-5" d="M111.15,132.92A57.45,57.45,0,0,0,101,151.25" transform="translate(-55.78 -24.81)"/>
<path class="cls-5" d="M171.94,132.92c-7.92-9.45-18.62-15.25-30.4-15.25" transform="translate(-55.78 -24.81)"/>
<path class="cls-5" d="M185.7,173.19a67.85,67.85,0,0,1-3.58,21.93" transform="translate(-55.78 -24.81)"/>
<path class="cls-5" d="M182.12,151.25a67.92,67.92,0,0,1,3.58,21.94" transform="translate(-55.78 -24.81)"/>
<path class="cls-5" d="M141.54,228.71c11.78,0,22.48-5.8,30.4-15.25" transform="translate(-55.78 -24.81)"/>
<path class="cls-5" d="M111.15,132.92c7.91-9.45,18.62-15.25,30.39-15.25" transform="translate(-55.78 -24.81)"/>
<path class="cls-5" d="M101,151.25a67.65,67.65,0,0,0-3.59,21.94" transform="translate(-55.78 -24.81)"/>
<path class="cls-5" d="M171.94,213.46a57.69,57.69,0,0,0,10.18-18.34" transform="translate(-55.78 -24.81)"/>
<path class="cls-5" d="M159.23,142.71a95.09,95.09,0,0,0-35.38,0" transform="translate(-55.78 -24.81)"/>
<path class="cls-5" d="M182.12,195.12a68.56,68.56,0,0,1-22.89,8.54" transform="translate(-55.78 -24.81)"/>
<path class="cls-5" d="M86,173.19c0,8.48,5.68,16.19,15,21.93" transform="translate(-55.78 -24.81)"/>
<path class="cls-5" d="M101,151.25a68.72,68.72,0,0,1,22.88-8.54" transform="translate(-55.78 -24.81)"/>
<path class="cls-5" d="M101,151.25C91.7,157,86,164.71,86,173.19" transform="translate(-55.78 -24.81)"/>
<path class="cls-5" d="M182.12,151.25a68.78,68.78,0,0,0-22.89-8.54" transform="translate(-55.78 -24.81)"/>
<path class="cls-5" d="M197.06,173.19c0,8.48-5.67,16.19-14.94,21.93" transform="translate(-55.78 -24.81)"/>
<path class="cls-5" d="M101,195.12a68.51,68.51,0,0,0,22.88,8.54" transform="translate(-55.78 -24.81)"/>
<path class="cls-5" d="M123.85,203.66a94.53,94.53,0,0,0,35.38,0" transform="translate(-55.78 -24.81)"/>
<path class="cls-5" d="M182.12,151.25c9.27,5.75,14.94,13.46,14.94,21.94" transform="translate(-55.78 -24.81)"/>
<line class="cls-5" x1="129.92" y1="148.38" x2="141.1" y2="148.38"/>
<line class="cls-5" x1="30.25" y1="148.38" x2="41.61" y2="148.38"/>
<path class="cls-5" d="M171.94,132.92A60.23,60.23,0,0,0,152.72,126" transform="translate(-55.78 -24.81)"/>
<path class="cls-5" d="M111.15,132.92C96,141.51,86,156.34,86,173.19" transform="translate(-55.78 -24.81)"/>
<path class="cls-5" d="M130.37,220.33a64.2,64.2,0,0,0,22.35,0" transform="translate(-55.78 -24.81)"/>
<path class="cls-5" d="M86,173.19c0,16.85,10,31.67,25.13,40.27" transform="translate(-55.78 -24.81)"/>
<path class="cls-5" d="M171.94,213.46a60,60,0,0,1-19.22,6.87" transform="translate(-55.78 -24.81)"/>
<path class="cls-5" d="M152.72,126a64.2,64.2,0,0,0-22.35,0" transform="translate(-55.78 -24.81)"/>
<path class="cls-5" d="M111.15,132.92A60.15,60.15,0,0,1,130.37,126" transform="translate(-55.78 -24.81)"/>
<path class="cls-5" d="M197.06,173.19c0,16.85-10,31.67-25.12,40.27" transform="translate(-55.78 -24.81)"/>
<path class="cls-5" d="M171.94,132.92c15.13,8.59,25.12,23.42,25.12,40.27" transform="translate(-55.78 -24.81)"/>
<path class="cls-5" d="M130.37,220.33a59.89,59.89,0,0,1-19.22-6.87" transform="translate(-55.78 -24.81)"/>
<path d="M148.81,162.4c4.05.55,6.08.85,10.13,1.47a11.88,11.88,0,0,1-6,5.65,25.25,25.25,0,0,1-10.71,2c-6.8,0-11.88-1.59-15-4.51a9.77,9.77,0,0,1-3.14-8.64,14.28,14.28,0,0,1,5.83-9.85,17.93,17.93,0,0,1,11.33-3.95,18.47,18.47,0,0,1,12.14,4.13,15.47,15.47,0,0,1,5.76,11.38,224.61,224.61,0,0,0-25-.47,5.61,5.61,0,0,0,2.33,4.79,9.71,9.71,0,0,0,5.9,1.73,8.4,8.4,0,0,0,4-.89A5.41,5.41,0,0,0,148.81,162.4Zm.29-6.91a6,6,0,0,0-2.37-4.46,8.67,8.67,0,0,0-10,.07,5.58,5.58,0,0,0-2.22,4.37C140.29,155.26,143.28,155.26,149.1,155.49Z" transform="translate(-55.78 -24.81)"/>
<path d="M109.66,175.19l7.64,0c0,1,0,1.56,0,2.6a11.2,11.2,0,0,1,4-2.14,17.61,17.61,0,0,1,5.64-.86,15.61,15.61,0,0,1,9.16,2.62,8.39,8.39,0,0,1,3.78,7.3,8.55,8.55,0,0,1-3.73,7.43,12.57,12.57,0,0,1-8.76,2.06,15.11,15.11,0,0,1-4.4-1.11,21.64,21.64,0,0,1-4.28-2.53c.41,3.45.67,5.15,1.32,8.45a56.9,56.9,0,0,1-6.69-2.17C110.67,188.86,109.89,184.27,109.66,175.19Zm8.37,8.56a6,6,0,0,0,2.31,4.56,9.18,9.18,0,0,0,4.92,1.91,6.61,6.61,0,0,0,4.54-1c1.21-.86,1.8-2.37,1.77-4.5a5.34,5.34,0,0,0-2-4.46,8.08,8.08,0,0,0-4.85-1.52,8.47,8.47,0,0,0-4.93,1.23A3.91,3.91,0,0,0,118,183.75Z" transform="translate(-55.78 -24.81)"/>
<path d="M105.58,171.56c-1.57-8.24-1.8-11.85-.82-17.91,1-.63,1.59-.93,2.71-1.51a48,48,0,0,0-.06,12.14,92.81,92.81,0,0,1,4.15-14.06c1.21-.5,1.83-.74,3.1-1.2a81.37,81.37,0,0,0,0,14.21,93.1,93.1,0,0,1,4.54-15.67c1.37-.39,2.07-.56,3.49-.89a97.83,97.83,0,0,0-6.66,24.89H113a92,92,0,0,1-1.24-14.42,92.41,92.41,0,0,0-3,14.42Z" transform="translate(-55.78 -24.81)"/>
<path d="M143.17,175.41h5c0,1.44,0,2.16,0,3.59,1.8-2.8,3.92-4.18,6.4-4.18a6,6,0,0,1,3.44,1,7.1,7.1,0,0,1,2.37,3,10.34,10.34,0,0,1,2.93-3,6.14,6.14,0,0,1,3.35-1,6.81,6.81,0,0,1,3.82,1,5.43,5.43,0,0,1,2.19,2.94,11.37,11.37,0,0,1,.08,4.58,59,59,0,0,1-3.08,13.5c-1.7.65-2.58,1-4.38,1.5a81.52,81.52,0,0,0,2.14-12.9c.23-2.31.13-3.82-.2-4.48a2.21,2.21,0,0,0-2.22-1.25,3.45,3.45,0,0,0-2.15.92,5.15,5.15,0,0,0-1.51,2.52,25.3,25.3,0,0,0-.71,5.14c-.33,4.72-.57,7-1.22,11.57-1.89.41-2.86.59-4.81.89.48-5.42.65-8.19.84-13.78a21.6,21.6,0,0,0-.17-4.81,3.08,3.08,0,0,0-.88-1.61,2.41,2.41,0,0,0-1.65-.5,3.45,3.45,0,0,0-2.27.89,4.88,4.88,0,0,0-1.45,2.51,23.84,23.84,0,0,0-.49,5.4c-.08,5.08-.14,7.61-.32,12.63-2,.15-3,.2-5.09.23Z" transform="translate(-55.78 -24.81)"/>
<path d="M163.05,171.13c-.15-10.36-.72-15.51-2.7-24.46,2.2.5,3.27.79,5.36,1.44.66,3.07.94,4.67,1.37,7.94a5.11,5.11,0,0,1,5.17-.73A13.56,13.56,0,0,1,178,159a9.82,9.82,0,0,1,2.89,5.59,5.11,5.11,0,0,1-1.78,5,8.47,8.47,0,0,1-5.52,1.95,7.2,7.2,0,0,1-3.17-.73,7.51,7.51,0,0,1-2.73-2.26c0,1,0,1.55,0,2.59Zm4.62-9a7.9,7.9,0,0,0,1.16,4,4.48,4.48,0,0,0,3.5,2,3.54,3.54,0,0,0,2.75-1,4,4,0,0,0,.92-3.38,6.42,6.42,0,0,0-1.52-3.89,6.1,6.1,0,0,0-3.09-1.89,3,3,0,0,0-2.86.52C167.82,159.2,167.54,160.4,167.67,162.11Z" transform="translate(-55.78 -24.81)"/>
</g>
</svg>